{
  "source": "C:\\Users\\Peter\\Desktop\\stuff\\MIUN\\quantitative_research\\video_compression\\videos\\BVI-HD\\BVI-HD_CDVL_videos\\ORIG\\SmokeGuns_1920x1080_60fps.mp4",
  "output": "C:\\Users\\Peter\\Desktop\\stuff\\MIUN\\quantitative_research\\video_compression\\compressed_videos\\BVI-HD\\av1\\1\\SmokeGuns_1920x1080_60fps_av1.mkv",
  "codec": "av1",
  "ok": "Input #0, mov,mp4,m4a,3gp,3g2,mj2, from 'C:\\Users\\Peter\\Desktop\\stuff\\MIUN\\quantitative_research\\video_compression\\videos\\BVI-HD\\BVI-HD_CDVL_videos\\ORIG\\SmokeGuns_1920x1080_60fps.mp4':\n  Metadata:\n    major_brand     : isom\n    minor_version   : 512\n    compatible_brands: isomiso2avc1mp41\n    encoder         : Lavf54.28.101\n  Duration: 00:00:05.00, start: 0.000000, bitrate: 384353 kb/s\n  Stream #0:0[0x1](und): Video: h264 (High 4:4:4 Predictive) (avc1 / 0x31637661), yuv420p(progressive), 1920x1080, 384348 kb/s, 60 fps, 60 tbr, 60 tbn (default)\n    Metadata:\n      handler_name    : VideoHandler\n      vendor_id       : [0][0][0][0]\n[out#0/matroska @ 0000018b56e296c0] Codec AVOption b:a (set bitrate (in bits/s)) has not been used for any stream. The most likely reason is either wrong type (e.g. a video option with no video streams) or that it is a private option of some decoder which was not actually used for any stream.\nStream mapping:\n  Stream #0:0 -> #0:0 (h264 (native) -> av1 (libsvtav1))\nPress [q] to stop, [?] for help\nSvt[info]: -------------------------------------------\nSvt[info]: SVT [version]:\tSVT-AV1 Encoder Lib v3.1.0-19-g6ecfe8ec\nSvt[info]: SVT [build]  :\tGCC 15.2.0\t 64 bit\nSvt[info]: LIB Build date: Aug 17 2025 11:37:13\nSvt[info]: -------------------------------------------\nSvt[info]: Level of Parallelism: 5\nSvt[info]: Number of PPCS 93\nSvt[info]: [asm level on system : up to avx2]\nSvt[info]: [asm level selected : up to avx2]\nSvt[info]: -------------------------------------------\nSvt[info]: SVT [config]: main profile\ttier (auto)\tlevel (auto)\nSvt[info]: SVT [config]: width / height / fps numerator / fps denominator \t\t: 1920 / 1080 / 60 / 1\nSvt[info]: SVT [config]: bit-depth / color format \t\t\t\t\t: 8 / YUV420\nSvt[info]: SVT [config]: preset / tune / pred struct \t\t\t\t\t: 4 / PSNR / random access\nSvt[info]: SVT [config]: gop size / mini-gop size / key-frame type \t\t\t: 321 / 16 / key frame\nSvt[info]: SVT [config]: BRC mode / target bitrate (kbps)\t\t\t\t: VBR / 1000 \nSvt[info]: SVT [config]: AQ mode / Variance Boost \t\t\t\t\t: 2 / 0\nSvt[info]: SVT [config]: sharpness / luminance-based QP bias \t\t\t\t: 0 / 0\nSvt[info]: SVT [config]: QP scale compress strength \t\t\t\t\t: 0\nSvt[info]: -------------------------------------------\nOutput #0, matroska, to 'C:\\Users\\Peter\\Desktop\\stuff\\MIUN\\quantitative_research\\video_compression\\compressed_videos\\BVI-HD\\av1\\1\\SmokeGuns_1920x1080_60fps_av1.mkv':\n  Metadata:\n    major_brand     : isom\n    minor_version   : 512\n    compatible_brands: isomiso2avc1mp41\n    encoder         : Lavf62.3.100\n  Stream #0:0(und): Video: av1 (AV01 / 0x31305641), yuv420p(tv, progressive), 1920x1080, q=2-31, 1000 kb/s, 60 fps, 1k tbn (default)\n    Metadata:\n      encoder         : Lavc62.11.100 libsvtav1\n      handler_name    : VideoHandler\n      vendor_id       : [0][0][0][0]\n    Side data:\n      cpb: bitrate max/min/avg: 0/0/1000000 buffer size: 1000000 vbv_delay: N/A\nframe=    0 fps=0.0 q=0.0 size=       0KiB time=N/A bitrate=N/A speed=N/A elapsed=0:00:01.04    \nframe=    0 fps=0.0 q=0.0 size=       0KiB time=N/A bitrate=N/A speed=N/A elapsed=0:00:01.62    \nframe=    0 fps=0.0 q=0.0 size=       0KiB time=N/A bitrate=N/A speed=N/A elapsed=0:00:02.20    \nframe=    0 fps=0.0 q=0.0 size=       0KiB time=N/A bitrate=N/A speed=N/A elapsed=0:00:02.82    \nframe=    0 fps=0.0 q=0.0 size=       0KiB time=N/A bitrate=N/A speed=N/A elapsed=0:00:03.36    \nframe=    0 fps=0.0 q=0.0 size=       0KiB time=N/A bitrate=N/A speed=N/A elapsed=0:00:03.91    \nframe=    0 fps=0.0 q=0.0 size=       0KiB time=N/A bitrate=N/A speed=N/A elapsed=0:00:04.44    \nframe=    1 fps=0.2 q=29.0 size=       1KiB time=00:00:00.00 bitrate=N/A speed=   0x elapsed=0:00:04.96    \nframe=    2 fps=0.4 q=56.0 size=       1KiB time=00:00:00.01 bitrate= 341.8kbits/s speed=0.00304x elapsed=0:00:05.48    \nframe=   10 fps=1.6 q=51.0 size=       1KiB time=00:00:00.11 bitrate=  48.8kbits/s speed=0.0192x elapsed=0:00:06.08    \nframe=   18 fps=2.7 q=49.0 size=       1KiB time=00:00:00.26 bitrate=  21.4kbits/s speed=0.0397x elapsed=0:00:06.71    \nframe=   23 fps=3.2 q=51.0 size=       1KiB time=00:00:00.36 bitrate=  15.5kbits/s speed=0.0503x elapsed=0:00:07.29    \nframe=   29 fps=3.7 q=51.0 size=       1KiB time=00:00:00.46 bitrate=  12.2kbits/s speed=0.0597x elapsed=0:00:07.81    \nframe=   35 fps=4.2 q=45.0 size=       1KiB time=00:00:00.56 bitrate=  10.1kbits/s speed=0.068x elapsed=0:00:08.33    \nframe=   40 fps=4.5 q=44.0 size=       1KiB time=00:00:00.65 bitrate=   8.8kbits/s speed=0.0731x elapsed=0:00:08.89    \nframe=   47 fps=4.9 q=47.0 size=       1KiB time=00:00:00.75 bitrate=   7.6kbits/s speed=0.079x elapsed=0:00:09.49    \nframe=   52 fps=5.2 q=39.0 size=       1KiB time=00:00:00.85 bitrate=   6.7kbits/s speed=0.0847x elapsed=0:00:10.03    \nframe=   57 fps=5.4 q=48.0 size=       1KiB time=00:00:00.93 bitrate=   6.1kbits/s speed=0.0883x elapsed=0:00:10.57    \nframe=   61 fps=5.5 q=49.0 size=       1KiB time=00:00:01.00 bitrate=   5.7kbits/s speed=0.0899x elapsed=0:00:11.12    \nframe=   67 fps=5.8 q=48.0 size=       1KiB time=00:00:01.10 bitrate=   5.2kbits/s speed=0.0944x elapsed=0:00:11.65    \nframe=   71 fps=5.8 q=48.0 size=       1KiB time=00:00:01.16 bitrate=   4.9kbits/s speed=0.0959x elapsed=0:00:12.16    \nframe=   78 fps=6.1 q=44.0 size=       1KiB time=00:00:01.28 bitrate=   4.4kbits/s speed=0.101x elapsed=0:00:12.68    \nframe=   83 fps=6.3 q=49.0 size=       1KiB time=00:00:01.36 bitrate=   4.2kbits/s speed=0.103x elapsed=0:00:13.21    \nframe=   89 fps=6.5 q=47.0 size=       1KiB time=00:00:01.46 bitrate=   3.9kbits/s speed=0.107x elapsed=0:00:13.72    \nframe=   95 fps=6.6 q=49.0 size=       1KiB time=00:00:01.56 bitrate=   3.6kbits/s speed=0.109x elapsed=0:00:14.34    \nframe=  102 fps=6.8 q=46.0 size=       1KiB time=00:00:01.68 bitrate=   3.4kbits/s speed=0.113x elapsed=0:00:14.91    \nframe=  107 fps=6.9 q=49.0 size=       1KiB time=00:00:01.76 bitrate=   3.2kbits/s speed=0.114x elapsed=0:00:15.47    \nframe=  114 fps=7.1 q=47.0 size=       1KiB time=00:00:01.86 bitrate=   3.1kbits/s speed=0.116x elapsed=0:00:16.05    \nframe=  120 fps=7.2 q=47.0 size=       1KiB time=00:00:01.96 bitrate=   2.9kbits/s speed=0.118x elapsed=0:00:16.61    \nframe=  124 fps=7.2 q=46.0 size=       1KiB time=00:00:02.05 bitrate=   2.8kbits/s speed=0.119x elapsed=0:00:17.16    \nframe=  131 fps=7.4 q=49.0 size=       1KiB time=00:00:02.16 bitrate=   2.6kbits/s speed=0.123x elapsed=0:00:17.68    \nframe=  139 fps=7.6 q=48.0 size=       1KiB time=00:00:02.26 bitrate=   2.5kbits/s speed=0.125x elapsed=0:00:18.20    \nframe=  146 fps=7.8 q=47.0 size=       1KiB time=00:00:02.40 bitrate=   2.4kbits/s speed=0.128x elapsed=0:00:18.76    \nframe=  151 fps=7.8 q=46.0 size=       1KiB time=00:00:02.50 bitrate=   2.3kbits/s speed=0.129x elapsed=0:00:19.33    \nframe=  159 fps=8.0 q=47.0 size=       1KiB time=00:00:02.61 bitrate=   2.2kbits/s speed=0.132x elapsed=0:00:19.87    \nframe=  165 fps=8.1 q=51.0 size=       1KiB time=00:00:02.73 bitrate=   2.1kbits/s speed=0.134x elapsed=0:00:20.46    \nframe=  169 fps=8.0 q=46.0 size=       1KiB time=00:00:02.80 bitrate=   2.0kbits/s speed=0.133x elapsed=0:00:20.99    \nframe=  176 fps=8.2 q=46.0 size=       1KiB time=00:00:02.91 bitrate=   2.0kbits/s speed=0.136x elapsed=0:00:21.51    \nframe=  183 fps=8.3 q=48.0 size=       1KiB time=00:00:03.03 bitrate=   1.9kbits/s speed=0.137x elapsed=0:00:22.07    \nframe=  189 fps=8.3 q=50.0 size=       1KiB time=00:00:03.11 bitrate=   1.8kbits/s speed=0.137x elapsed=0:00:22.68    \nframe=  198 fps=8.5 q=46.0 size=       1KiB time=00:00:03.28 bitrate=   1.7kbits/s speed=0.141x elapsed=0:00:23.27    \nframe=  205 fps=8.6 q=50.0 size=       1KiB time=00:00:03.40 bitrate=   1.7kbits/s speed=0.143x elapsed=0:00:23.82    \nframe=  213 fps=8.7 q=50.0 size=       1KiB time=00:00:03.53 bitrate=   1.6kbits/s speed=0.145x elapsed=0:00:24.36    \nframe=  219 fps=8.8 q=47.0 size=       1KiB time=00:00:03.63 bitrate=   1.6kbits/s speed=0.146x elapsed=0:00:24.93    \nframe=  231 fps=9.1 q=47.0 size=       1KiB time=00:00:03.83 bitrate=   1.5kbits/s speed=0.15x elapsed=0:00:25.47    \nframe=  241 fps=9.3 q=32.0 size=       1KiB time=00:00:04.00 bitrate=   1.4kbits/s speed=0.154x elapsed=0:00:26.02    \nframe=  249 fps=9.4 q=46.0 size=       1KiB time=00:00:04.13 bitrate=   1.4kbits/s speed=0.155x elapsed=0:00:26.61    \nframe=  257 fps=9.5 q=32.0 size=       1KiB time=00:00:04.26 bitrate=   1.3kbits/s speed=0.157x elapsed=0:00:27.13    \nframe=  265 fps=9.6 q=43.0 size=       1KiB time=00:00:04.40 bitrate=   1.3kbits/s speed=0.159x elapsed=0:00:27.65    \nframe=  271 fps=9.6 q=37.0 size=       1KiB time=00:00:04.50 bitrate=   1.3kbits/s speed=0.16x elapsed=0:00:28.20    \nframe=  277 fps=9.6 q=47.0 size=       1KiB time=00:00:04.60 bitrate=   1.2kbits/s speed=0.16x elapsed=0:00:28.74    \nframe=  285 fps=9.7 q=49.0 size=       1KiB time=00:00:04.73 bitrate=   1.2kbits/s speed=0.162x elapsed=0:00:29.26    \n[out#0/matroska @ 0000018b56e296c0] video:598KiB audio:0KiB subtitle:0KiB other streams:0KiB global headers:0KiB muxing overhead: 0.346420%\nframe=  300 fps= 10 q=54.0 Lsize=     600KiB time=00:00:04.98 bitrate= 986.3kbits/s speed=0.169x elapsed=0:00:29.52    \n",
  "seconds": 30.26777744293213,
  "probe_out": {}
}